{"title":"Funkytown 2011 DVDrip English Klam","uid":6914643,"size":2196416292,"categoryP":"video","categoryS":"movies","magnet":"?xt=urn:btih:1a4b5b408a819147bd43e6c8fc1c051d50bd8533&amp;dn=Funkytown+2011+DVDrip+English+Klam&amp;tr=udp%3A%2F%2Ftracker.openbittorrent.com%3A80&amp;tr=udp%3A%2F%2Fopen.demonii.com%3A1337&amp;tr=udp%3A%2F%2Ftracker.coppersurfer.tk%3A6969&amp;tr=udp%3A%2F%2Fexodus.desync.com%3A6969","seeders":0,"leechers":1,"uploader":"Klambake","files":-1,"time":1324984641,"description":"With: Patrick Huard, Justin Chatwin en Paul Doucet\n\nHet is het jaar 1976 in MontrÃƒÂ©al. De stad is sterk groeiende en er gaan geruchten dat Quebec zich zal afscheiden van Canada. Zelfgenoegzaamheid is uitgegroeid tot de gouden standaard en de jongeren bezoeken massaal de nachtclubs, op zoek naar het goede leven. Zeven brutale Canadezen broeden op een plan dat het hele systeem zal laten schudden op hun grondvesten, en hun rijker zal maken dan ze ooit hadden durven dromen.\n\n1976. Montreal. Eight people who wanted to see and be seen at the trendiest disco will be juggling fame and anonymity until they will be forced to make sober choices in an era when excess was the norm, and when disco was king. \n\n------------------------ Dutch Friends ------------------------\n---------------------------------------------------------------\n- Bezoek ook eens mijn vrienden op: &lt;a href=&quot; http://www.Film-Test.nl&quot; rel=&quot;nofollow&quot; target=&quot;_NEW&quot;&gt; http://www.Film-Test.nl&lt;/a&gt; --\n----- voor mijn Nederlandse Sync. ondertitels ---- en meer ----\n------- http://www.Film-Test.nl ---- voor Films en meer -------\n---------------------------------------------------------------\n\nGeneral:\n\nComplete name                    : Funkytown\\Funkytown.avi\nFormat                           : AVI\nFormat/Info                      : Audio Video Interleave\nFile size                        : 2.05 GiB\nDuration                         : 2h 7mn\nOverall bit rate                 : 2 296 Kbps\n\nVideo:\n\nFormat                           : MPEG-4 Visual\nFormat profile                   : Simple@L3\nFormat settings, BVOP            : No\nFormat settings, QPel            : No\nFormat settings, GMC             : No warppoints\nFormat settings, Matrix          : Default (H.263)\nCodec ID                         : XVID\nCodec ID/Hint                    : XviD\nDuration                         : 2h 7mn\nBit rate                         : 1 838 Kbps\nWidth                            : 720 pixels\nHeight                           : 304 pixels\nDisplay aspect ratio             : 2.35:1\nFrame rate                       : 25.000 fps\nColor space                      : YUV\nChroma subsampling               : 4:2:0\nBit depth                        : 8 bits\nScan type                        : Progressive\nCompression mode                 : Lossy\nBits/(Pixel*Frame)               : 0.336\nStream size                      : 1.64 GiB (80%)\nWriting library                  : XviD 1.1.2 (UTC 2006-11-01)\n\nAudio:\n\nFormat                           : AC-3\nFormat/Info                      : Audio Coding 3\nMode extension                   : CM (complete main)\nCodec ID                         : 2000\nDuration                         : 2h 7mn\nBit rate mode                    : Constant\nBit rate                         : 448 Kbps\nChannel(s)                       : 6 channels\nChannel positions                : Front: L C R, Side: L R, LFE\nSampling rate                    : 48.0 KHz\nBit depth                        : 16 bits\nCompression mode                 : Lossy\nStream size                      : 409 MiB (20%)\nAlignment                        : Aligned on interleaves\nInterleave, duration             : 32 ms (0.80 video frame)\nInterleave, preload duration     : 32 ms\n\n\n","torrent":{"xt":"urn:btih:1a4b5b408a819147bd43e6c8fc1c051d50bd8533","amp;dn":"Funkytown+2011+DVDrip+English+Klam","amp;tr":["udp%3A%2F%2Ftracker.openbittorrent.com%3A80","udp%3A%2F%2Fopen.demonii.com%3A1337","udp%3A%2F%2Ftracker.coppersurfer.tk%3A6969","udp%3A%2F%2Fexodus.desync.com%3A6969"],"infoHash":"1a4b5b408a819147bd43e6c8fc1c051d50bd8533","infoHashBuffer":{"type":"Buffer","data":[26,75,91,64,138,129,145,71,189,67,230,200,252,28,5,29,80,189,133,51]},"announce":[],"urlList":[]}}